<svg t="1781793882155" class="icon" viewBox="0 0 1024 1024" version="1.1" xmlns="http://www.w3.org/2000/svg" p-id="5909" width="200" height="200"><path d="M853.333333 42.666667H725.333333a42.666667 42.666667 0 0 0 0 85.333333h128a42.666667 42.666667 0 0 1 42.666667 42.666667v128a42.666667 42.666667 0 0 0 85.333333 0V170.666667c0-70.688-57.312-128-128-128zM298.666667 42.666667H170.666667C99.978667 42.666667 42.666667 99.978667 42.666667 170.666667v128a42.666667 42.666667 0 0 0 85.333333 0V170.666667a42.666667 42.666667 0 0 1 42.666667-42.666667h128a42.666667 42.666667 0 0 0 0-85.333333z m640 640a42.666667 42.666667 0 0 0-42.666667 42.666666v128c0 23.573333-19.093333 42.666667-42.666667 42.666667H725.333333a42.666667 42.666667 0 0 0 0 85.333333h128c70.688 0 128-57.312 128-128V725.333333a42.666667 42.666667 0 0 0-42.666666-42.666666zM298.666667 896H170.666667a42.666667 42.666667 0 0 1-42.666667-42.666667V725.333333a42.666667 42.666667 0 0 0-85.322667-1.344v129.354667c0 70.688 57.312 128 128 128h128A42.666667 42.666667 0 1 0 298.666667 896z" p-id="5910"></path></svg>