<svg t="1781793980219" class="icon" viewBox="0 0 1024 1024" version="1.1" xmlns="http://www.w3.org/2000/svg" p-id="2742" width="200" height="200"><path d="M810.666667 341.333333h128a42.666667 42.666667 0 0 0 0-85.333333H810.666667c-23.573333 0-42.666667-19.093333-42.666667-42.666667V85.333333a42.666667 42.666667 0 0 0-85.333333 0v128c0 70.688 57.312 128 128 128zM85.333333 341.333333h128c70.688 0 128-57.312 128-128V85.333333a42.666667 42.666667 0 0 0-85.333333 0v128c0 23.573333-19.093333 42.666667-42.666667 42.666667H85.333333a42.666667 42.666667 0 0 0 0 85.333333z m640 640a42.666667 42.666667 0 0 0 42.666667-42.666666V810.666667c0-23.573333 19.093333-42.666667 42.666667-42.666667h128a42.666667 42.666667 0 0 0 0-85.333333H810.666667c-70.688 0-128 57.312-128 128v128a42.666667 42.666667 0 0 0 42.666666 42.666666zM85.333333 768h128c23.573333 0 42.666667 19.093333 42.666667 42.666667v128a42.666667 42.666667 0 0 0 85.333333 0V810.666667c0-70.688-57.312-128-128-128H85.333333a42.666667 42.666667 0 0 0 0 85.333333z" p-id="2743"></path></svg>