<svg class="icon" viewBox="0 0 1024 1024" version="1.1" xmlns="http://www.w3.org/2000/svg" width="200" height="200"><path d="M415.616 224.352v32h288v-32h-288z m192 96v32h224v-32h-224z m0 96v32h224v-32h-224z" fill="#2B4255"></path><path d="M335.616 96.352a16 16 0 0 0-16 16v223.616a16 16 0 1 0 32 0V128.352h425.376l150.624 150.304V896h-576v-73.856a16 16 0 1 0-32 0v89.856a16 16 0 0 0 16 16h608a16 16 0 0 0 16-16V272a16 16 0 0 0-4.672-11.296l-160-159.616a16 16 0 0 0-11.328-4.704h-448z" fill="#2B4255"></path><path d="M783.36 96a16 16 0 0 0-15.744 16v160a16 16 0 0 0 16 16H944a16 16 0 0 0 11.328-27.328l-160.384-160a16 16 0 0 0-11.584-4.704z m16.256 54.592L905.28 256h-105.6V150.592z" fill="#2B4255"></path><path d="M320.64 512.224a30.624 30.624 0 0 0-18.144 8.8l-0.544 0.576-27.584 26.88h3.2l-95.264 106.624-4.128 4.576 0.128 2.752a28.928 28.928 0 0 0-3.2 12.256c0 16 13.28 29.248 29.28 29.248h134.976v-32H210.176l106.144-118.752 4.32-4.704h-0.448l3.52-3.36 68.16 76.128 23.872-21.376-70.624-78.752-0.256-0.32a30.528 30.528 0 0 0-24.224-8.64zM213.312 432.64c-25.984 0-47.488 21.44-47.488 47.424 0 26.016 21.44 47.52 47.488 47.52S260.736 506.048 260.736 480a47.68 47.68 0 0 0-47.424-47.424z m0 32c8.768 0 15.424 6.72 15.424 15.424 0 8.736-6.72 15.52-15.424 15.52A15.296 15.296 0 0 1 197.824 480c0-8.736 6.72-15.424 15.488-15.424z" fill="#F05542"></path><path d="M465.184 532.288a29.536 29.536 0 0 0-19.072 8.64l-0.352 0.384-0.32 0.384h-0.064l-2.624 2.944-6.208 6.88h-0.064l-136.32 152.064h35.84c52.032 0 95.808 0.704 160.192 0H512v-133.76l-23.328-27.616-0.48-0.448a31.456 31.456 0 0 0-23.008-9.44z m1.6 33.568l13.216 15.616v90.208c-40.736 0.32-74.4 0-108.128 0l94.944-105.824z" fill="#F05542"></path><path d="M80 320.32a16 16 0 0 0-16 16v480a16 16 0 0 0 16 16h480a16 16 0 0 0 16-16v-142.464a16 16 0 1 0-32 0v126.432H96v-448h109.312a16 16 0 1 0 0-32H80z m206.72 0a16 16 0 1 0 0 32H544v210.048a16 16 0 1 0 32 0V336.288a16 16 0 0 0-16-16H286.72z m273.024 289.536a16 16 0 0 0-15.744 16.256v0.32a16 16 0 1 0 32 0v-0.32a16 16 0 0 0-16.256-16.192z" fill="#F05542"></path><path d="M208 160.352c-19.328 0-38.88 5.92-54.24 18.688-15.36 12.8-25.76 33.024-25.76 57.28v96.224a16 16 0 1 0 32 0V236.288c0-15.68 5.6-25.44 14.24-32.64 8.64-7.168 21.088-11.296 33.76-11.296 12.672 0 25.12 4.128 33.76 11.328 8.64 7.168 14.24 16.928 14.24 32.64v191.36c0 22.528-9.504 26.816-16 26.816s-16-4.288-16-26.816V270.976a16 16 0 1 0-32 0v156.704c0 34.496 22.496 58.816 48 58.816s48-24.32 48-58.816v-191.36c0-24.256-10.4-44.48-25.76-57.28-15.36-12.8-34.912-18.688-54.24-18.688z" fill="#F05542"></path></svg>
