<svg t="1612515592110" class="icon" viewBox="0 0 1024 1024" version="1.1" xmlns="http://www.w3.org/2000/svg" p-id="1715" width="200" height="200"><path d="M320 384c0 36.266667 27.733333 64 64 64s64-27.733333 64-64-27.733333-64-64-64-64 27.733333-64 64M704 384c0-36.266667-27.733333-64-64-64s-64 27.733333-64 64 27.733333 64 64 64 64-27.733333 64-64M558.933333 563.2l-32-55.466667c-6.4-12.8-23.466667-12.8-32 0l-32 55.466667c-6.4 12.8 2.133333 27.733333 14.933334 27.733333h64c17.066667 0 25.6-14.933333 17.066666-27.733333" fill="#2F3CF4" p-id="1716"></path><path d="M298.666667 793.6V853.333333c0 23.466667-19.2 42.666667-42.666667 42.666667s-42.666667-19.2-42.666667-42.666667-19.2-42.666667-42.666666-42.666666-42.666667 19.2-42.666667 42.666666c0 70.4 57.6 128 128 128s128-57.6 128-128v-85.333333-2.133333-4.266667-4.266667c0-2.133333 0-2.133333-2.133333-4.266666 0-2.133333 0-2.133333-2.133334-4.266667 0-2.133333-2.133333-2.133333-2.133333-4.266667s-2.133333-2.133333-2.133333-4.266666-2.133333-2.133333-2.133334-4.266667l-2.133333-2.133333-2.133333-2.133334c-2.133333 0-2.133333-2.133333-4.266667-2.133333 0 0-2.133333 0-2.133333-2.133333-106.666667-53.333333-170.666667-160-170.666667-279.466667 0-177.066667 142.933333-320 320-320s320 142.933333 320 320c0 119.466667-64 226.133333-168.533333 281.6 0 0-2.133333 0-2.133334 2.133333-2.133333 0-2.133333 2.133333-4.266666 2.133334s-2.133333 2.133333-2.133334 2.133333l-2.133333 2.133333s-2.133333 2.133333-2.133333 4.266667-2.133333 2.133333-2.133334 4.266667-2.133333 2.133333-2.133333 4.266666-2.133333 2.133333-2.133333 4.266667 0 2.133333-2.133334 4.266667v96c0 70.4 57.6 128 128 128s128-57.6 128-128c0-23.466667-19.2-42.666667-42.666666-42.666667s-42.666667 19.2-42.666667 42.666667-19.2 42.666667-42.666667 42.666666-42.666667-19.2-42.666666-42.666666v-59.733334c119.466667-74.666667 192-202.666667 192-345.6C917.333333 224 736 42.666667 512 42.666667S106.666667 224 106.666667 448c0 140.8 72.533333 270.933333 192 345.6" fill="#2F3CF4" p-id="1717"></path><path d="M512 725.333333c-23.466667 0-42.666667 19.2-42.666667 42.666667v170.666667c0 23.466667 19.2 42.666667 42.666667 42.666666s42.666667-19.2 42.666667-42.666666v-170.666667c0-23.466667-19.2-42.666667-42.666667-42.666667" fill="#2F3CF4" p-id="1718"></path></svg>
