<svg t="1617284786422" class="icon" viewBox="0 0 1024 1024" version="1.1" xmlns="http://www.w3.org/2000/svg" p-id="2155" width="200" height="200"><path d="M640 256c0-17.7-14.3-32-32-32H224c-17.7 0-32 14.3-32 32s14.3 32 32 32h384c17.7 0 32-14.3 32-32zM640 448c0-17.7-14.3-32-32-32H224c-17.7 0-32 14.3-32 32s14.3 32 32 32h384c17.7 0 32-14.3 32-32zM224 608c-17.7 0-32 14.3-32 32s14.3 32 32 32h192c17.7 0 32-14.3 32-32s-14.3-32-32-32H224zM832 704c70.7 0 128-57.3 128-128s-57.3-128-128-128-128 57.3-128 128c0 13.5 2.1 26.4 5.9 38.6l-74 46.4c-16.4-13.1-37.3-21-59.9-21-53 0-96 43-96 96s43 96 96 96c20.3 0 39.2-6.3 54.7-17.1l104.6 74.9c-0.2 2.1-0.3 4.1-0.3 6.2 0 35.3 28.7 64 64 64s64-28.7 64-64-28.7-64-64-64c-9.4 0-18.4 2.1-26.4 5.7L668.2 763c2.5-8.6 3.8-17.6 3.8-27 0-7.1-0.8-14-2.2-20.7l74.1-46.5c22.9 21.8 54 35.2 88.1 35.2z m0-192c35.3 0 64 28.7 64 64s-28.7 64-64 64-64-28.7-64-64 28.7-64 64-64zM576 768c-17.6 0-32-14.4-32-32s14.4-32 32-32 32 14.4 32 32-14.4 32-32 32z" p-id="2156"></path><path d="M480 832H160c-17.7 0-32-14.3-32-32V160c0-17.7 14.3-32 32-32h575v224c0 17.7 14.3 32 32 32s32-14.3 32-32V128c0-35.3-28.7-64-64-64H128c-35.3 0-64 28.7-64 64v704c0 35.3 28.7 64 64 64h352c17.7 0 32-14.3 32-32s-14.3-32-32-32z" p-id="2157"></path></svg>
