<svg t="1617284456191" class="icon" viewBox="0 0 1024 1024" version="1.1" xmlns="http://www.w3.org/2000/svg" p-id="2461" width="200" height="200"><path d="M163.285333 567.936a362.666667 362.666667 0 0 0 182.826667 222.549333 170.666667 170.666667 0 1 1 4.352 95.36 448.170667 448.170667 0 0 1-269.226667-294.4 42.666667 42.666667 0 0 1 82.048-23.509333zM512 745.301333a85.333333 85.333333 0 1 0 0 170.666667 85.333333 85.333333 0 0 0 0-170.666667z m341.333333-640a170.666667 170.666667 0 0 1 103.125334 306.645334 446.378667 446.378667 0 0 1-109.184 353.152 42.666667 42.666667 0 1 1-63.829334-56.618667 361.088 361.088 0 0 0 90.538667-263.125333A170.666667 170.666667 0 1 1 853.333333 105.301333z m-341.333333-85.333333c32.213333 0 64 3.413333 94.976 10.069333a42.666667 42.666667 0 1 1-18.005333 83.413334 364.245333 364.245333 0 0 0-284.245334 56.874666 170.666667 170.666667 0 1 1-71.381333-53.162666A447.061333 447.061333 0 0 1 512 19.968z m341.333333 170.666667a85.333333 85.333333 0 1 0 0 170.666666 85.333333 85.333333 0 0 0 0-170.666666z m-682.666666 0a85.333333 85.333333 0 1 0 0 170.666666 85.333333 85.333333 0 0 0 0-170.666666z" p-id="2462" fill="#13227a"></path></svg>
