<svg xmlns="http://www.w3.org/2000/svg" height="200" viewBox="0 0 1024 1024" width="200"><path d="m512 74.666667c-241.066667 0-437.333333 196.266666-437.333333 437.333333s196.266666 437.333333 437.333333 437.333333 437.333333-196.266666 437.333333-437.333333-196.266666-437.333333-437.333333-437.333333zm2.133333 189.866666c17.066667 0 32 14.933333 32 32s-14.933333 32-32 32-32-14.933333-32-32 14.933333-32 32-32zm183.466667 337.066667-172.8 151.466667c-2.133333 0-2.133333 2.133333-4.266667 2.133333l-2.133333 2.133333c-2.133333 0-4.266667 2.133333-8.533333 2.133334s-6.4 0-8.533334-2.133334c0 0-2.133333 0-2.133333-2.133333-2.133333 0-2.133333-2.133333-4.266667-2.133333l-172.8-151.466667c-8.533333-8.533333-10.666667-21.333333-2.133333-29.866667 8.533333-8.533333 21.333333-10.666667 29.866667-2.133333l136.533333 119.466667v-285.866667c0-12.8 8.533333-21.333333 21.333333-21.333333s21.333333 8.533333 21.333334 21.333333v288l136.533333-119.466667c8.533333-8.533333 21.333333-6.4 29.866667 2.133334 12.8 6.4 10.666667 21.333333 2.133333 27.733333z" fill="#2c2c2c"/></svg>